<svg width="300" height="300" viewBox="0 0 300 300" fill="none" xmlns="http://www.w3.org/2000/svg">
<mask id="mask0_27_7" style="mask-type:alpha" maskUnits="userSpaceOnUse" x="23" y="56" width="254" height="188">
<path d="M140 195L130 210L114.16 233.76C112.181 236.728 107.819 236.728 105.84 233.76L31.849 122.774C30.7293 121.094 30.7293 118.906 31.849 117.226L65.8397 66.2404C67.8189 63.2717 72.1811 63.2717 74.1603 66.2404L150 180L185.84 233.76C187.819 236.728 192.181 236.728 194.16 233.76L268.151 122.774C269.271 121.094 269.271 118.906 268.151 117.226L234.16 66.2404C232.181 63.2717 227.819 63.2717 225.84 66.2404L190 120L170 150L160 165" stroke="#844545" stroke-width="15" stroke-linecap="round"/>
</mask>
<g mask="url(#mask0_27_7)">
<rect x="-22" y="-16" width="300" height="300" fill="#FF8686"/>
<g filter="url(#filter0_f_27_7)">
<path d="M-27.6149 -16.1653C-38.5622 11.9944 21.7862 96.6292 21.7862 96.6292C21.7862 96.6292 -69.2008 78.0096 -90.1356 102.992C-107.441 123.644 -65.2038 145.302 -79.4538 168.035C-103.327 206.118 -40.4406 238.687 4.61142 249.948C74.2637 267.359 125.511 205.683 147.333 140.059C170.362 70.8061 88.5147 -38.6633 88.5147 -38.6633C88.5147 -38.6633 -11.4111 -57.8461 -27.6149 -16.1653Z" fill="#EE86FF"/>
</g>
<g filter="url(#filter1_f_27_7)">
<path d="M139.062 5.54286C75.9657 14.8973 175.81 145.058 175.81 145.058C175.81 145.058 143.651 202.968 166.549 257.463C187.207 306.626 417.678 255.631 417.678 255.631C417.678 255.631 292.377 155.286 249.454 102.962C206.931 51.1269 410.067 -13.6334 340.565 -29.0403C283.42 -41.7082 199.374 -3.39872 139.062 5.54286Z" fill="#A586FF"/>
</g>
<g filter="url(#filter2_f_27_7)">
<circle cx="103" cy="270" r="108" fill="#86FFD3"/>
</g>
<g filter="url(#filter3_f_27_7)">
<path d="M134.535 31.0639C93.1955 11.8805 32.8051 89.0511 32.8051 89.0511C32.8051 89.0511 21.9219 176.475 53.6008 212.126C87.5369 250.316 178.375 238.161 178.375 238.161C178.375 238.161 306.513 227.086 298.653 171.89C290.865 117.209 220.093 158.231 183.433 118.636C153.291 86.0807 174.051 49.4006 134.535 31.0639Z" fill="#86C5FF"/>
</g>
</g>
<defs>
<filter id="filter0_f_27_7" x="-168.372" y="-117.07" width="393.791" height="444.002" filterUnits="userSpaceOnUse" color-interpolation-filters="sRGB">
<feFlood flood-opacity="0" result="BackgroundImageFix"/>
<feBlend mode="normal" in="SourceGraphic" in2="BackgroundImageFix" result="shape"/>
<feGaussianBlur stdDeviation="37" result="effect1_foregroundBlur_27_7"/>
</filter>
<filter id="filter1_f_27_7" x="44.156" y="-105.584" width="447.522" height="458.432" filterUnits="userSpaceOnUse" color-interpolation-filters="sRGB">
<feFlood flood-opacity="0" result="BackgroundImageFix"/>
<feBlend mode="normal" in="SourceGraphic" in2="BackgroundImageFix" result="shape"/>
<feGaussianBlur stdDeviation="37" result="effect1_foregroundBlur_27_7"/>
</filter>
<filter id="filter2_f_27_7" x="-79" y="88" width="364" height="364" filterUnits="userSpaceOnUse" color-interpolation-filters="sRGB">
<feFlood flood-opacity="0" result="BackgroundImageFix"/>
<feBlend mode="normal" in="SourceGraphic" in2="BackgroundImageFix" result="shape"/>
<feGaussianBlur stdDeviation="37" result="effect1_foregroundBlur_27_7"/>
</filter>
<filter id="filter3_f_27_7" x="-43" y="-46" width="416" height="360" filterUnits="userSpaceOnUse" color-interpolation-filters="sRGB">
<feFlood flood-opacity="0" result="BackgroundImageFix"/>
<feBlend mode="normal" in="SourceGraphic" in2="BackgroundImageFix" result="shape"/>
<feGaussianBlur stdDeviation="37" result="effect1_foregroundBlur_27_7"/>
</filter>
</defs>
</svg>
